<mxfile host="app.diagrams.net" modified="2021-04-25T10:30:39.246Z" agent="5.0 (Windows NT 10.0; Win64; x64) AppleWebKit/537.36 (KHTML, like Gecko) Chrome/89.0.4389.82 Safari/537.36 Edg/89.0.774.48" etag="8Knh9xlPxVr_hlJUT0RT" version="14.5.8" type="github">
  <diagram name="Page-1" id="c7558073-3199-34d8-9f00-42111426c3f3">
    <mxGraphModel dx="1678" dy="372" grid="1" gridSize="10" guides="1" tooltips="1" connect="1" arrows="1" fold="1" page="1" pageScale="1" pageWidth="826" pageHeight="1169" background="#ffffff" math="0" shadow="0">
      <root>
        <mxCell id="0" />
        <mxCell id="1" parent="0" />
        <mxCell id="DJit7XBmtXHK6iYe5bfM-96" value="&amp;lt;COMMON_DOCKERFILE_CONTENT&amp;gt;&lt;br&gt;Dockerfile" style="rounded=1;whiteSpace=wrap;html=1;" vertex="1" parent="1">
          <mxGeometry x="50" y="327" width="240" height="60" as="geometry" />
        </mxCell>
        <mxCell id="DJit7XBmtXHK6iYe5bfM-98" value="Alibaba specific instructions" style="rounded=1;whiteSpace=wrap;html=1;" vertex="1" parent="1">
          <mxGeometry x="353" y="327" width="120" height="60" as="geometry" />
        </mxCell>
        <mxCell id="DJit7XBmtXHK6iYe5bfM-101" value="" style="shape=cross;whiteSpace=wrap;html=1;size=0;" vertex="1" parent="1">
          <mxGeometry x="305" y="342" width="30" height="30" as="geometry" />
        </mxCell>
        <mxCell id="DJit7XBmtXHK6iYe5bfM-106" value="" style="edgeStyle=orthogonalEdgeStyle;rounded=0;orthogonalLoop=1;jettySize=auto;html=1;" edge="1" parent="1" source="DJit7XBmtXHK6iYe5bfM-104" target="DJit7XBmtXHK6iYe5bfM-105">
          <mxGeometry relative="1" as="geometry" />
        </mxCell>
        <mxCell id="DJit7XBmtXHK6iYe5bfM-104" value="" style="shape=curlyBracket;whiteSpace=wrap;html=1;rounded=1;flipH=1;rotation=90;" vertex="1" parent="1">
          <mxGeometry x="310" y="350" width="20" height="120" as="geometry" />
        </mxCell>
        <mxCell id="DJit7XBmtXHK6iYe5bfM-105" value="ali_Dockerfile" style="whiteSpace=wrap;html=1;rounded=1;" vertex="1" parent="1">
          <mxGeometry x="260" y="440" width="120" height="60" as="geometry" />
        </mxCell>
        <mxCell id="DJit7XBmtXHK6iYe5bfM-115" value="" style="edgeStyle=orthogonalEdgeStyle;rounded=0;orthogonalLoop=1;jettySize=auto;html=1;" edge="1" parent="1" source="DJit7XBmtXHK6iYe5bfM-107" target="DJit7XBmtXHK6iYe5bfM-114">
          <mxGeometry relative="1" as="geometry" />
        </mxCell>
        <mxCell id="DJit7XBmtXHK6iYe5bfM-116" value="Push image" style="edgeLabel;html=1;align=center;verticalAlign=middle;resizable=0;points=[];" vertex="1" connectable="0" parent="DJit7XBmtXHK6iYe5bfM-115">
          <mxGeometry x="0.2435" y="1" relative="1" as="geometry">
            <mxPoint x="-1" y="-14.12" as="offset" />
          </mxGeometry>
        </mxCell>
        <mxCell id="DJit7XBmtXHK6iYe5bfM-107" value="" style="rounded=1;whiteSpace=wrap;html=1;" vertex="1" parent="1">
          <mxGeometry x="150" y="560" width="180" height="500" as="geometry" />
        </mxCell>
        <mxCell id="DJit7XBmtXHK6iYe5bfM-108" value="Build Pipeline&lt;br&gt;jupyterhub_alicloud_image" style="text;html=1;strokeColor=none;fillColor=none;align=center;verticalAlign=middle;whiteSpace=wrap;rounded=0;" vertex="1" parent="1">
          <mxGeometry x="160" y="567" width="160" height="35" as="geometry" />
        </mxCell>
        <mxCell id="DJit7XBmtXHK6iYe5bfM-109" value="" style="rounded=1;whiteSpace=wrap;html=1;" vertex="1" parent="1">
          <mxGeometry x="440" y="560" width="160" height="240" as="geometry" />
        </mxCell>
        <mxCell id="DJit7XBmtXHK6iYe5bfM-110" value="Release Pipeline&lt;br&gt;Jupyterhub Alicloud" style="text;html=1;strokeColor=none;fillColor=none;align=center;verticalAlign=middle;whiteSpace=wrap;rounded=0;" vertex="1" parent="1">
          <mxGeometry x="440" y="567" width="160" height="35" as="geometry" />
        </mxCell>
        <mxCell id="DJit7XBmtXHK6iYe5bfM-111" value="Build agent" style="rounded=1;whiteSpace=wrap;html=1;" vertex="1" parent="1">
          <mxGeometry x="260" y="30" width="120" height="60" as="geometry" />
        </mxCell>
        <mxCell id="DJit7XBmtXHK6iYe5bfM-112" value="K8S cluster" style="rounded=1;whiteSpace=wrap;html=1;" vertex="1" parent="1">
          <mxGeometry x="630" y="80" width="120" height="60" as="geometry" />
        </mxCell>
        <mxCell id="DJit7XBmtXHK6iYe5bfM-113" value="Kubectl" style="rounded=1;whiteSpace=wrap;html=1;" vertex="1" parent="1">
          <mxGeometry x="413" y="120" width="120" height="60" as="geometry" />
        </mxCell>
        <mxCell id="DJit7XBmtXHK6iYe5bfM-114" value="Azure Container Registry" style="rounded=1;whiteSpace=wrap;html=1;align=left;" vertex="1" parent="1">
          <mxGeometry x="170" y="1129" width="140" height="40" as="geometry" />
        </mxCell>
        <mxCell id="DJit7XBmtXHK6iYe5bfM-117" value="$(Build.SourcesDirectory)" style="text;html=1;strokeColor=none;fillColor=none;align=center;verticalAlign=middle;whiteSpace=wrap;rounded=0;" vertex="1" parent="1">
          <mxGeometry x="580" y="270" width="160" height="150" as="geometry" />
        </mxCell>
        <mxCell id="DJit7XBmtXHK6iYe5bfM-119" value="BuildSparkAlicloud" style="rounded=1;whiteSpace=wrap;html=1;" vertex="1" parent="1">
          <mxGeometry x="160" y="610" width="160" height="30" as="geometry" />
        </mxCell>
        <mxCell id="DJit7XBmtXHK6iYe5bfM-120" value="" style="rounded=1;whiteSpace=wrap;html=1;" vertex="1" parent="1">
          <mxGeometry x="160" y="650" width="160" height="400" as="geometry" />
        </mxCell>
        <mxCell id="DJit7XBmtXHK6iYe5bfM-121" value="BuildDatascienceAlicloud" style="text;html=1;strokeColor=none;fillColor=none;align=center;verticalAlign=middle;whiteSpace=wrap;rounded=0;" vertex="1" parent="1">
          <mxGeometry x="220" y="660" width="40" height="20" as="geometry" />
        </mxCell>
        <mxCell id="DJit7XBmtXHK6iYe5bfM-118" value="Script&lt;br&gt;Inject common docker file contents into Alicloud dockerfile" style="rounded=1;whiteSpace=wrap;html=1;" vertex="1" parent="1">
          <mxGeometry x="170" y="690" width="140" height="60" as="geometry" />
        </mxCell>
        <mxCell id="DJit7XBmtXHK6iYe5bfM-122" value="DownloadSecureFile@1&lt;br&gt;Name: azure_cert&lt;br&gt;azure_cert.cert" style="rounded=1;whiteSpace=wrap;html=1;" vertex="1" parent="1">
          <mxGeometry x="170" y="760" width="140" height="60" as="geometry" />
        </mxCell>
        <mxCell id="DJit7XBmtXHK6iYe5bfM-123" value="DownloadSecureFile@1&lt;br&gt;Name: adapt_cert&lt;br&gt;adapt_cert.pem" style="rounded=1;whiteSpace=wrap;html=1;" vertex="1" parent="1">
          <mxGeometry x="170" y="830" width="140" height="60" as="geometry" />
        </mxCell>
        <mxCell id="DJit7XBmtXHK6iYe5bfM-124" value="Script&lt;br&gt;&lt;br&gt;Copy cert and pem file into the &#39;image&#39; folder" style="rounded=1;whiteSpace=wrap;html=1;" vertex="1" parent="1">
          <mxGeometry x="170" y="900" width="140" height="60" as="geometry" />
        </mxCell>
        <mxCell id="DJit7XBmtXHK6iYe5bfM-125" value="Docker@2&lt;br&gt;&lt;br&gt;Build and push the image to the container register" style="rounded=1;whiteSpace=wrap;html=1;" vertex="1" parent="1">
          <mxGeometry x="170" y="970" width="140" height="60" as="geometry" />
        </mxCell>
        <mxCell id="DJit7XBmtXHK6iYe5bfM-126" value="Download the file to the agent. You can refer to the downloaded file via, e.g., $(azure_cert.secureFilePath)" style="text;html=1;strokeColor=none;fillColor=none;align=center;verticalAlign=middle;whiteSpace=wrap;rounded=0;" vertex="1" parent="1">
          <mxGeometry x="-130" y="770" width="190" height="60" as="geometry" />
        </mxCell>
        <mxCell id="DJit7XBmtXHK6iYe5bfM-127" value="" style="curved=1;endArrow=classic;html=1;exitX=1;exitY=0.5;exitDx=0;exitDy=0;entryX=0;entryY=0.5;entryDx=0;entryDy=0;" edge="1" parent="1" source="DJit7XBmtXHK6iYe5bfM-126" target="DJit7XBmtXHK6iYe5bfM-122">
          <mxGeometry width="50" height="50" relative="1" as="geometry">
            <mxPoint x="30" y="870" as="sourcePoint" />
            <mxPoint x="80" y="820" as="targetPoint" />
            <Array as="points">
              <mxPoint x="80" y="790" />
            </Array>
          </mxGeometry>
        </mxCell>
        <mxCell id="DJit7XBmtXHK6iYe5bfM-128" value="" style="curved=1;endArrow=classic;html=1;exitX=1;exitY=0.75;exitDx=0;exitDy=0;entryX=0;entryY=0.5;entryDx=0;entryDy=0;" edge="1" parent="1" source="DJit7XBmtXHK6iYe5bfM-126" target="DJit7XBmtXHK6iYe5bfM-123">
          <mxGeometry width="50" height="50" relative="1" as="geometry">
            <mxPoint x="50" y="790" as="sourcePoint" />
            <mxPoint x="180" y="800" as="targetPoint" />
            <Array as="points">
              <mxPoint x="90" y="800" />
            </Array>
          </mxGeometry>
        </mxCell>
        <mxCell id="DJit7XBmtXHK6iYe5bfM-129" value="Copy the downloaded file to the &#39;$(Build.SourcesDirectory)/image/&#39; folder" style="text;html=1;strokeColor=none;fillColor=none;align=center;verticalAlign=middle;whiteSpace=wrap;rounded=0;" vertex="1" parent="1">
          <mxGeometry x="-110" y="900" width="200" height="40" as="geometry" />
        </mxCell>
        <mxCell id="DJit7XBmtXHK6iYe5bfM-130" value="" style="curved=1;endArrow=classic;html=1;exitX=1;exitY=0.5;exitDx=0;exitDy=0;entryX=0;entryY=0.5;entryDx=0;entryDy=0;" edge="1" parent="1" source="DJit7XBmtXHK6iYe5bfM-129" target="DJit7XBmtXHK6iYe5bfM-124">
          <mxGeometry width="50" height="50" relative="1" as="geometry">
            <mxPoint x="20" y="1010" as="sourcePoint" />
            <mxPoint x="70" y="960" as="targetPoint" />
            <Array as="points">
              <mxPoint x="110" y="940" />
            </Array>
          </mxGeometry>
        </mxCell>
      </root>
    </mxGraphModel>
  </diagram>
</mxfile>
